# Blender v2.76 (sub 0) OBJ File: ''
# www.blender.org
mtllib map_surface.mtl
g Rectangle19.001
v -120.799164 214.721588 42.000038
v -129.509521 214.721588 42.000038
v -129.509521 174.034988 42.000031
v -120.799164 174.034988 42.000031
v -120.804420 158.870468 42.000031
v -129.509521 158.870468 42.000031
v -129.509521 65.981346 42.000019
v -120.804420 65.981346 42.000019
v -113.960815 65.981346 42.000019
v -146.686478 65.981346 42.000019
v -146.686478 45.458698 42.000015
v -113.960815 45.458698 42.000015
v -131.241150 248.876984 42.000038
v -131.241150 230.518066 42.000034
v -111.007339 230.518066 42.000034
v -111.007339 248.876984 42.000038
v -131.241150 312.876068 42.000046
v -131.241150 269.769745 42.000038
v -111.007339 269.769745 42.000038
v -111.007339 312.876068 42.000046
v -131.763885 334.307098 42.000050
v -131.763885 312.516785 42.000050
v -111.007339 312.876068 42.000050
v -97.427643 326.290100 42.000050
v -97.427643 346.522858 42.000053
v -121.198883 346.522858 42.000053
v -54.391579 346.523895 42.000050
v -97.427635 346.523926 42.000050
v -97.427643 326.290100 42.000046
v -54.391582 326.290070 42.000046
v -74.625381 363.560547 42.000050
v -74.625381 346.523895 42.000050
v -54.391579 346.523895 42.000050
v -54.391571 363.560547 42.000050
v -74.625381 407.847443 42.000057
v -74.625381 387.241821 42.000053
v -54.391579 387.241821 42.000053
v -54.391571 407.847443 42.000057
v -74.151085 437.997650 50.684372
v -54.391598 437.997650 50.684372
v -54.391582 513.908508 50.684380
v -74.151070 513.908508 50.684380
v -74.151077 497.340454 50.684376
v -93.910545 497.340454 50.684376
v -93.910545 456.254395 50.684368
v -74.151077 456.254395 50.684368
v -125.907341 194.797745 19.066502
v -125.907341 184.835815 19.066502
v -111.007339 184.835815 19.066502
v -111.007339 194.797745 19.066504
v -125.907356 204.759674 30.533268
v -125.907356 194.797745 30.533264
v -111.007347 194.797745 30.533266
v -111.007347 204.759674 30.533268
v -125.907356 214.721588 42.000034
v -125.907356 204.759674 42.000031
v -111.007347 204.759674 42.000031
v -111.007347 214.721588 42.000034
v -54.391598 534.169556 6.988986
v -2.670960 534.169556 6.988977
v -2.670960 534.169556 6.988977
v -54.391598 534.169556 6.988986
v -54.391582 326.271942 6.988961
v -3.619105 346.836426 6.988955
v -54.402222 346.836426 6.988963
v -3.619105 268.930206 6.988945
v -59.355518 268.930206 6.988954
v -97.427643 326.271942 6.988966
v -111.007339 312.857941 6.988967
v -111.007339 269.751617 6.988962
v -67.774498 258.365173 6.988954
v -71.736374 218.744217 6.988950
v -120.754311 230.513184 6.988959
v -120.754311 218.744217 6.988957
v -111.007339 230.513184 6.988957
v -71.736374 227.330505 6.988951
v -111.007339 248.858841 6.988959
v -67.774498 227.330505 6.988950
v -120.630524 269.751617 6.988963
v -120.630524 248.858841 6.988961
v -86.047409 14.273807 6.988928
v -113.887428 23.004766 6.988933
v -108.292435 15.085964 6.988931
v -113.962860 44.003403 6.988935
v -113.960808 65.963196 6.988937
v -120.812874 158.852325 6.988950
v -120.812874 65.963196 6.988939
v -129.509521 174.016846 6.988953
v -129.509521 158.852325 6.988951
v -120.799164 174.016846 6.988952
v -111.007339 184.817673 6.988952
v -120.799164 184.817673 6.988953
v -121.136757 214.703445 6.988957
v -66.393745 218.744217 6.988949
v -121.154999 218.744217 6.988957
v -111.007339 214.703445 6.988955
v -66.393745 125.345016 6.988938
v -72.093353 125.345016 6.988938
v -72.093353 116.894997 6.988937
v -66.868958 73.655746 6.988932
v -66.868958 116.894997 6.988937
v -59.356277 66.086929 6.988930
v -27.878498 66.142487 6.988925
v -20.735283 56.469666 6.988923
v -25.199469 23.012726 6.988920
v -19.506718 23.004766 6.988919
v -79.703804 4.831079 6.988926
v -25.199469 14.267653 6.988919
v -79.703804 -77.278214 6.988916
v -19.506718 -77.278214 6.988907
v -19.506718 14.273807 6.988918
v -7.560658 355.130341 6.988956
v -54.391579 346.836426 6.988963
v -7.560658 346.834595 6.988955
v -54.391571 363.542419 6.988965
v -74.625381 363.542419 6.988968
v -54.391579 387.223663 6.988968
v -74.625381 387.223663 6.988971
v -54.391571 407.829285 6.988970
v -74.151085 437.979492 6.988976
v -74.625381 407.829285 6.988973
v -54.391598 437.979492 6.988974
v -7.903737 447.625305 6.988967
v -2.670960 447.625305 6.988966
v -7.903737 439.339264 6.988966
v -2.891553 355.130341 6.988955
v -2.891553 439.339264 6.988966
v -66.392151 159.343445 6.977890
v -45.916374 159.343445 0.101134
v -45.916374 174.243423 0.101135
v -66.392151 174.243423 6.977892
v -19.505095 -14.899981 6.986615
v 0.970667 -14.899980 0.109858
v 0.970667 -0.000000 0.109860
v -19.505095 -0.000001 6.986617
vt 0.446659 1.000000
vt 0.355698 0.000000
vt 0.355698 1.000000
vt 0.446659 0.000000
vt 0.592233 0.659991
vt 0.992525 0.693624
vt 0.592149 0.693624
vt 0.992525 0.566211
vt 0.553097 0.566211
vt 0.252935 0.659991
vt 0.145872 0.638053
vt 0.145872 0.567554
vt 0.486721 0.548932
vt 0.455486 0.484134
vt 0.069026 0.503381
vt 0.069026 0.484134
vt 0.145872 0.503381
vt 0.455486 0.498176
vt 0.145872 0.533385
vt 0.486721 0.498176
vt 0.070002 0.567554
vt 0.070002 0.533385
vt 0.342657 0.149730
vt 0.123165 0.164009
vt 0.167276 0.151058
vt 0.122570 0.198352
vt 0.122587 0.234266
vt 0.068565 0.386183
vt 0.068565 0.234266
vt 0.000000 0.410984
vt 0.000000 0.386183
vt 0.068673 0.410984
vt 0.145872 0.428648
vt 0.068673 0.428648
vt 0.066011 0.477525
vt 0.497607 0.484134
vt 0.065867 0.484134
vt 0.145872 0.477525
vt 0.497607 0.331383
vt 0.452671 0.331383
vt 0.452671 0.317563
vt 0.493861 0.246847
vt 0.493861 0.317563
vt 0.553091 0.234468
vt 0.801263 0.234559
vt 0.857580 0.218740
vt 0.822384 0.164022
vt 0.867266 0.164009
vt 0.392670 0.134287
vt 0.822384 0.149720
vt 0.392670 0.000000
vt 0.867266 0.000000
vt 0.867266 0.149730
vt 0.961449 0.707188
vt 0.592233 0.693624
vt 0.961449 0.693621
vt 0.592233 0.720946
vt 0.432709 0.720946
vt 0.592233 0.759676
vt 0.432709 0.759676
vt 0.592233 0.793375
vt 0.436448 0.842685
vt 0.432709 0.793375
vt 0.592233 0.842685
vt 1.000000 1.000000
vt 0.592233 1.000000
vt 0.958745 0.858460
vt 1.000000 0.858460
vt 0.958745 0.844909
vt 0.998261 0.707188
vt 0.998261 0.844909
vt -102.378845 -74.499878
vt 102.378845 -74.499878
vt 102.378845 74.499878
vt -102.378845 74.499878
vt 0.999501 0.999500
vt 0.000501 0.999501
vt 0.000499 0.000500
vt 0.999499 0.000499
vt 0.998896 -0.371844
vt 0.000499 -0.371843
vt 0.000496 -2.652602
vt 0.998893 -2.652603
vt 1.783794 -2.652603
vt -1.969549 -2.652602
vt -1.969550 -3.156507
vt 1.783794 -3.156507
vt -0.198101 1.838138
vt -0.198102 1.387361
vt 2.122535 1.387361
vt 2.122536 1.838138
vt -0.198099 3.409544
vt -0.198100 2.351129
vt 2.122536 2.351129
vt 2.122538 3.409543
vt -0.258052 3.935751
vt -0.258053 3.400721
vt 3.680008 3.738905
vt 3.680009 4.235692
vt 0.953660 4.235692
vt 8.615862 4.235717
vt 8.615861 3.738905
vt 6.295226 4.654028
vt 6.295225 4.235717
vt 8.615863 4.654028
vt 6.295227 5.741429
vt 6.295226 5.235487
vt 8.615863 5.235487
vt 8.615864 5.741429
vt 6.349625 6.481724
vt 8.615862 6.481724
vt 8.615866 8.345608
vt 6.349629 8.345608
vt 6.349627 7.938801
vt 4.083392 7.938802
vt 4.083391 6.929993
vt 6.349626 6.929993
vt 0.250967 0.355321
vt 0.250966 0.065960
vt 0.749033 0.065960
vt 0.749033 0.355320
vt 0.250967 0.644680
vt 0.749033 0.644680
vt 0.250967 0.934040
vt 0.749033 0.934040
vn 0.000000 0.000000 -0.000000
vn 0.000000 0.000000 1.000000
vn 1.000000 -0.000000 0.000000
vn 0.318400 -0.000000 0.948000
usemtl 09_-_Default.001
s 1
f 59/1/1 60/2/2 61/3/3
f 60/2/2 59/1/1 62/4/2
f 63/5/2 64/6/2 65/7/2
f 63/5/2 66/8/2 64/6/2
f 63/5/2 67/9/2 66/8/2
f 68/10/2 67/9/2 63/5/2
f 69/11/2 67/9/2 68/10/2
f 70/12/2 67/9/2 69/11/2
f 70/12/2 71/13/2 67/9/2
f 72/14/2 73/15/2 74/16/2
f 72/14/2 75/17/2 73/15/2
f 76/18/2 75/17/2 72/14/2
f 76/18/2 77/19/2 75/17/2
f 78/20/2 77/19/2 76/18/2
f 71/13/2 77/19/2 78/20/2
f 70/12/2 77/19/2 71/13/2
f 79/21/2 77/19/2 70/12/2
f 79/21/2 80/22/2 77/19/2
f 81/23/2 82/24/2 83/25/2
f 81/23/2 84/26/2 82/24/2
f 85/27/2 86/28/2 87/29/2
f 86/28/2 88/30/2 89/31/2
f 86/28/2 90/32/2 88/30/2
f 90/32/2 91/33/2 92/34/2
f 93/35/2 94/36/2 95/37/2
f 96/38/2 94/36/2 93/35/2
f 96/38/2 97/39/2 94/36/2
f 91/33/2 97/39/2 96/38/2
f 91/33/2 98/40/2 97/39/2
f 90/32/2 98/40/2 91/33/2
f 86/28/2 98/40/2 90/32/2
f 85/27/2 98/40/2 86/28/2
f 85/27/2 99/41/2 98/40/2
f 99/41/2 100/42/2 101/43/2
f 85/27/2 100/42/2 99/41/2
f 84/26/2 100/42/2 85/27/2
f 84/26/2 102/44/2 100/42/2
f 81/23/2 102/44/2 84/26/2
f 81/23/2 103/45/2 102/44/2
f 81/23/2 104/46/2 103/45/2
f 104/46/2 105/47/2 106/48/2
f 81/23/2 105/47/2 104/46/2
f 107/49/2 105/47/2 81/23/2
f 107/49/2 108/50/2 105/47/2
f 109/51/2 108/50/2 107/49/2
f 110/52/2 108/50/2 109/51/2
f 110/52/2 111/53/2 108/50/2
f 112/54/2 113/55/2 114/56/2
f 112/54/2 115/57/2 113/55/2
f 116/58/2 117/59/2 118/60/2
f 115/57/2 117/59/2 116/58/2
f 119/61/2 120/62/2 121/63/2
f 119/61/2 122/64/2 120/62/2
f 122/64/2 60/65/2 62/66/2
f 60/65/2 123/67/2 124/68/2
f 122/64/2 123/67/2 60/65/2
f 122/64/2 125/69/2 123/67/2
f 119/61/2 125/69/2 122/64/2
f 117/59/2 125/69/2 119/61/2
f 115/57/2 125/69/2 117/59/2
f 112/54/2 125/69/2 115/57/2
f 126/70/2 125/69/2 112/54/2
f 126/70/2 127/71/2 125/69/2
f 128/72/4 129/73/4 130/74/4
f 128/72/4 130/74/4 131/75/4
f 132/72/4 133/73/4 134/74/4
f 132/72/4 134/74/4 135/75/4
usemtl 13_-_Default.001
f 1/76/2 2/77/2 3/78/2
f 3/78/2 4/79/2 1/76/2
f 5/80/2 6/81/2 7/82/2
f 7/82/2 8/83/2 5/80/2
f 9/84/2 10/85/2 11/86/2
f 11/86/2 12/87/2 9/84/2
f 13/88/2 14/89/2 15/90/2
f 15/90/2 16/91/2 13/88/2
f 17/92/2 18/93/2 19/94/2
f 19/94/2 20/95/2 17/92/2
f 21/96/2 22/97/2 23/95/2
f 21/96/2 23/95/2 24/98/2
f 24/98/2 25/99/2 26/100/2
f 21/96/2 24/98/2 26/100/2
f 27/101/2 28/99/2 29/98/2
f 29/98/2 30/102/2 27/101/2
f 31/103/2 32/104/2 33/101/2
f 33/101/2 34/105/2 31/103/2
f 35/106/2 36/107/2 37/108/2
f 37/108/2 38/109/2 35/106/2
f 39/110/2 40/111/2 41/112/2
f 41/112/2 42/113/2 39/110/2
f 43/114/2 44/115/2 45/116/2
f 45/116/2 46/117/2 43/114/2
f 47/118/2 48/119/2 49/120/2
f 49/120/2 50/121/2 47/118/2
f 51/122/2 52/118/2 53/121/2
f 53/121/2 54/123/2 51/122/2
f 55/124/2 56/122/2 57/123/2
f 57/123/2 58/125/2 55/124/2
